<svg width="32" height="12" viewBox="0 0 32 12" fill="none" xmlns="http://www.w3.org/2000/svg">
<path d="M25.4434 0.319767C25.6415 0.11502 25.9101 0 26.1903 0C26.4704 0 26.739 0.11502 26.9371 0.319767L31.6907 5.23444C31.8888 5.43925 32 5.71699 32 6.00659C32 6.29619 31.8888 6.57394 31.6907 6.77874L26.9371 11.6934C26.7379 11.8924 26.471 12.0024 26.1941 12C25.9171 11.9975 25.6521 11.8826 25.4563 11.6801C25.2604 11.4776 25.1493 11.2037 25.1469 10.9173C25.1445 10.631 25.251 10.3551 25.4434 10.1491L28.303 7.09874H1.05636C0.776196 7.09874 0.507506 6.98368 0.309401 6.77886C0.111295 6.57404 0 6.29625 0 6.00659C0 5.71694 0.111295 5.43914 0.309401 5.23433C0.507506 5.02951 0.776196 4.91444 1.05636 4.91444H28.303L25.4434 1.86407C25.2454 1.65926 25.1341 1.38152 25.1341 1.09192C25.1341 0.802318 25.2454 0.524575 25.4434 0.319767Z" fill="#FCFBFB"/>
</svg>
