<svg width="15" height="20" viewBox="0 0 15 20" fill="none" xmlns="http://www.w3.org/2000/svg">
<path d="M1.83333 19.25C1.32917 19.25 0.897722 19.0706 0.539 18.7119C0.180278 18.3532 0.000611111 17.9214 0 17.4167V8.25C0 7.74583 0.179667 7.31439 0.539 6.95567C0.898333 6.59695 1.32978 6.41728 1.83333 6.41667H2.75V4.58333C2.75 3.31528 3.19703 2.23453 4.09108 1.34108C4.98514 0.44764 6.06589 0.000611737 7.33333 6.25711e-07C8.60078 -0.000610485 9.68183 0.446417 10.5765 1.34108C11.4712 2.23575 11.9179 3.3165 11.9167 4.58333V6.41667H12.8333C13.3375 6.41667 13.7692 6.59633 14.1286 6.95567C14.4879 7.315 14.6673 7.74645 14.6667 8.25V17.4167C14.6667 17.9208 14.4873 18.3526 14.1286 18.7119C13.7699 19.0713 13.3381 19.2506 12.8333 19.25H1.83333ZM8.62858 14.1286C8.98731 13.7693 9.16667 13.3375 9.16667 12.8333C9.16667 12.3292 8.98731 11.8977 8.62858 11.539C8.26986 11.1803 7.83811 11.0006 7.33333 11C6.82856 10.9994 6.39711 11.1791 6.039 11.539C5.68089 11.8989 5.50122 12.3304 5.5 12.8333C5.49878 13.3363 5.67844 13.768 6.039 14.1286C6.39956 14.4891 6.831 14.6685 7.33333 14.6667C7.83567 14.6648 8.26742 14.4855 8.62858 14.1286ZM4.58333 6.41667H10.0833V4.58333C10.0833 3.81944 9.81597 3.17014 9.28125 2.63542C8.74653 2.1007 8.09722 1.83333 7.33333 1.83333C6.56944 1.83333 5.92014 2.1007 5.38542 2.63542C4.85069 3.17014 4.58333 3.81944 4.58333 4.58333V6.41667Z" fill="#4E8ACD" fill-opacity="0.8"/>
</svg>
